<svg width="241" height="48" viewBox="0 0 241 48" fill="none" xmlns="http://www.w3.org/2000/svg">
<path d="M69.8457 24H66.5264V17.2217H60.3066V24H56.9766V8.29492H60.3066V14.4502H66.5264V8.29492H69.8457V24ZM78.5146 11.7646C79.6247 11.7646 80.5807 11.9795 81.3828 12.4092C82.1849 12.8317 82.8044 13.4476 83.2412 14.2568C83.6781 15.0661 83.8965 16.0544 83.8965 17.2217V18.8115H76.1514C76.1872 19.7354 76.4629 20.4622 76.9785 20.9922C77.5013 21.515 78.2246 21.7764 79.1484 21.7764C79.9147 21.7764 80.6165 21.6976 81.2539 21.54C81.8913 21.3825 82.5465 21.1462 83.2197 20.8311V23.3662C82.6253 23.6598 82.0023 23.8747 81.3506 24.0107C80.7061 24.1468 79.9219 24.2148 78.998 24.2148C77.7949 24.2148 76.7279 23.9928 75.7969 23.5488C74.873 23.1048 74.1462 22.4281 73.6162 21.5186C73.0934 20.609 72.832 19.4632 72.832 18.0811C72.832 16.6774 73.0684 15.5101 73.541 14.5791C74.0208 13.641 74.6868 12.9391 75.5391 12.4736C76.3913 12.001 77.3831 11.7646 78.5146 11.7646ZM78.5361 14.0957C77.8988 14.0957 77.3688 14.2998 76.9463 14.708C76.5309 15.1162 76.291 15.7572 76.2266 16.6309H80.8242C80.8171 16.1439 80.7275 15.7106 80.5557 15.3311C80.391 14.9515 80.1403 14.6507 79.8037 14.4287C79.4743 14.2067 79.0518 14.0957 78.5361 14.0957ZM93.2637 11.7646C93.4284 11.7646 93.6182 11.7754 93.833 11.7969C94.055 11.8112 94.234 11.8327 94.3701 11.8613L94.123 14.9336C94.0156 14.8978 93.8617 14.8727 93.6611 14.8584C93.4678 14.8369 93.2995 14.8262 93.1562 14.8262C92.7337 14.8262 92.3219 14.8799 91.9209 14.9873C91.527 15.0947 91.1725 15.2702 90.8574 15.5137C90.5423 15.75 90.2917 16.0651 90.1055 16.459C89.9264 16.8457 89.8369 17.3219 89.8369 17.8877V24H86.5605V11.9902H89.042L89.5254 14.0098H89.6865C89.9229 13.6016 90.2165 13.2292 90.5674 12.8926C90.9255 12.5488 91.3301 12.2767 91.7812 12.0762C92.2396 11.8685 92.7337 11.7646 93.2637 11.7646ZM103.694 9.68066C102.828 9.68066 102.047 9.83105 101.353 10.1318C100.665 10.4255 100.078 10.8551 99.5908 11.4209C99.111 11.9795 98.7422 12.6562 98.4844 13.4512C98.2266 14.2461 98.0977 15.1413 98.0977 16.1367C98.0977 17.4544 98.3018 18.6003 98.71 19.5742C99.1253 20.541 99.7412 21.2894 100.558 21.8193C101.381 22.3493 102.409 22.6143 103.641 22.6143C104.342 22.6143 105.001 22.557 105.617 22.4424C106.24 22.3206 106.845 22.1702 107.433 21.9912V23.5811C106.86 23.7959 106.258 23.9535 105.628 24.0537C104.998 24.1611 104.249 24.2148 103.383 24.2148C101.786 24.2148 100.45 23.8854 99.376 23.2266C98.3089 22.5605 97.5068 21.6224 96.9697 20.4121C96.4398 19.2018 96.1748 17.7731 96.1748 16.126C96.1748 14.9372 96.3395 13.8522 96.6689 12.8711C97.0055 11.8828 97.4925 11.0306 98.1299 10.3145C98.7744 9.59831 99.5622 9.04688 100.493 8.66016C101.431 8.26628 102.506 8.06934 103.716 8.06934C104.511 8.06934 105.277 8.14811 106.015 8.30566C106.752 8.46322 107.418 8.6888 108.013 8.98242L107.282 10.5293C106.781 10.3001 106.229 10.1032 105.628 9.93848C105.034 9.7666 104.389 9.68066 103.694 9.68066ZM120.721 18.0918C120.721 19.0586 120.595 19.9215 120.345 20.6807C120.094 21.4398 119.732 22.0807 119.26 22.6035C118.787 23.1263 118.214 23.5273 117.541 23.8066C116.875 24.0788 116.119 24.2148 115.274 24.2148C114.487 24.2148 113.763 24.0788 113.104 23.8066C112.453 23.5273 111.887 23.1263 111.407 22.6035C110.935 22.0807 110.566 21.4398 110.301 20.6807C110.043 19.9215 109.914 19.0586 109.914 18.0918C109.914 16.8027 110.132 15.707 110.569 14.8047C111.006 13.8952 111.629 13.2041 112.438 12.7314C113.255 12.2516 114.225 12.0117 115.35 12.0117C116.424 12.0117 117.362 12.2516 118.164 12.7314C118.973 13.2113 119.6 13.9059 120.044 14.8154C120.495 15.7178 120.721 16.8099 120.721 18.0918ZM111.762 18.0918C111.762 19.0371 111.887 19.8571 112.138 20.5518C112.388 21.2464 112.775 21.7835 113.298 22.1631C113.821 22.5426 114.494 22.7324 115.317 22.7324C116.134 22.7324 116.803 22.5426 117.326 22.1631C117.856 21.7835 118.246 21.2464 118.497 20.5518C118.748 19.8571 118.873 19.0371 118.873 18.0918C118.873 17.1536 118.748 16.3444 118.497 15.6641C118.246 14.9766 117.86 14.4466 117.337 14.0742C116.814 13.7018 116.137 13.5156 115.307 13.5156C114.082 13.5156 113.183 13.9202 112.61 14.7295C112.045 15.5387 111.762 16.6595 111.762 18.0918ZM136.587 12.0117C137.883 12.0117 138.861 12.3519 139.52 13.0322C140.178 13.7054 140.508 14.7904 140.508 16.2871V24H138.746V16.373C138.746 15.4206 138.538 14.708 138.123 14.2354C137.715 13.7555 137.106 13.5156 136.297 13.5156C135.158 13.5156 134.331 13.8451 133.815 14.5039C133.3 15.1628 133.042 16.1331 133.042 17.415V24H131.27V16.373C131.27 15.7357 131.176 15.2057 130.99 14.7832C130.811 14.3607 130.539 14.0456 130.174 13.8379C129.816 13.623 129.361 13.5156 128.81 13.5156C128.029 13.5156 127.402 13.6768 126.93 13.999C126.457 14.3213 126.113 14.8011 125.898 15.4385C125.691 16.0687 125.587 16.8457 125.587 17.7695V24H123.804V12.2266H125.243L125.512 13.8916H125.608C125.845 13.4834 126.142 13.1396 126.5 12.8604C126.858 12.5811 127.259 12.3698 127.703 12.2266C128.147 12.0833 128.62 12.0117 129.121 12.0117C130.016 12.0117 130.765 12.18 131.366 12.5166C131.975 12.846 132.415 13.3509 132.688 14.0312H132.784C133.171 13.3509 133.701 12.846 134.374 12.5166C135.047 12.18 135.785 12.0117 136.587 12.0117ZM149.703 12.0117C151.171 12.0117 152.342 12.5166 153.216 13.5264C154.09 14.5361 154.526 16.0544 154.526 18.0811C154.526 19.4202 154.326 20.5446 153.925 21.4541C153.524 22.3636 152.958 23.0511 152.228 23.5166C151.504 23.9821 150.648 24.2148 149.66 24.2148C149.037 24.2148 148.489 24.1325 148.017 23.9678C147.544 23.8031 147.139 23.5811 146.803 23.3018C146.466 23.0225 146.187 22.7181 145.965 22.3887H145.836C145.857 22.668 145.882 23.0046 145.911 23.3984C145.947 23.7923 145.965 24.1361 145.965 24.4297V29.2637H144.171V12.2266H145.643L145.879 13.9668H145.965C146.194 13.6087 146.473 13.2829 146.803 12.9893C147.132 12.6885 147.533 12.4521 148.006 12.2803C148.486 12.1012 149.051 12.0117 149.703 12.0117ZM149.392 13.5156C148.575 13.5156 147.916 13.6732 147.415 13.9883C146.921 14.3034 146.559 14.776 146.33 15.4062C146.101 16.0293 145.979 16.8135 145.965 17.7588V18.1025C145.965 19.098 146.072 19.9395 146.287 20.627C146.509 21.3145 146.871 21.8372 147.372 22.1953C147.881 22.5534 148.561 22.7324 149.413 22.7324C150.144 22.7324 150.752 22.5355 151.239 22.1416C151.726 21.7477 152.088 21.1999 152.324 20.498C152.568 19.7891 152.689 18.9762 152.689 18.0596C152.689 16.6702 152.417 15.5674 151.873 14.751C151.336 13.9274 150.509 13.5156 149.392 13.5156ZM162.046 12.0332C163.45 12.0332 164.492 12.3483 165.172 12.9785C165.852 13.6087 166.192 14.6149 166.192 15.9971V24H164.893L164.549 22.2598H164.463C164.133 22.6895 163.79 23.0511 163.432 23.3447C163.074 23.6312 162.658 23.8496 162.186 24C161.72 24.1432 161.147 24.2148 160.467 24.2148C159.751 24.2148 159.113 24.0895 158.555 23.8389C158.003 23.5882 157.566 23.2087 157.244 22.7002C156.929 22.1917 156.771 21.5472 156.771 20.7666C156.771 19.5921 157.237 18.6898 158.168 18.0596C159.099 17.4294 160.517 17.0856 162.422 17.0283L164.452 16.9424V16.2227C164.452 15.2057 164.234 14.4932 163.797 14.085C163.36 13.6768 162.744 13.4727 161.949 13.4727C161.333 13.4727 160.746 13.5622 160.188 13.7412C159.629 13.9202 159.099 14.1315 158.598 14.375L158.05 13.0215C158.58 12.7493 159.188 12.5166 159.876 12.3232C160.563 12.1299 161.287 12.0332 162.046 12.0332ZM164.431 18.1992L162.637 18.2744C161.169 18.3317 160.134 18.5716 159.532 18.9941C158.931 19.4167 158.63 20.0146 158.63 20.7881C158.63 21.4613 158.834 21.959 159.242 22.2812C159.65 22.6035 160.191 22.7646 160.864 22.7646C161.91 22.7646 162.766 22.4746 163.432 21.8945C164.098 21.3145 164.431 20.4443 164.431 19.2842V18.1992ZM177.482 20.7773C177.482 21.5293 177.293 22.1631 176.913 22.6787C176.541 23.1872 176.004 23.5703 175.302 23.8281C174.607 24.0859 173.776 24.2148 172.81 24.2148C171.986 24.2148 171.273 24.1504 170.672 24.0215C170.07 23.8926 169.544 23.71 169.093 23.4736V21.8301C169.573 22.0664 170.146 22.2812 170.812 22.4746C171.478 22.668 172.158 22.7646 172.853 22.7646C173.869 22.7646 174.607 22.5999 175.065 22.2705C175.524 21.9411 175.753 21.4935 175.753 20.9277C175.753 20.6055 175.66 20.3226 175.474 20.0791C175.295 19.8285 174.99 19.5885 174.561 19.3594C174.131 19.123 173.536 18.8652 172.777 18.5859C172.025 18.2995 171.374 18.0166 170.822 17.7373C170.278 17.4508 169.855 17.1035 169.555 16.6953C169.261 16.2871 169.114 15.7572 169.114 15.1055C169.114 14.11 169.515 13.3473 170.317 12.8174C171.127 12.2803 172.187 12.0117 173.497 12.0117C174.206 12.0117 174.868 12.0833 175.484 12.2266C176.107 12.3626 176.688 12.5488 177.225 12.7852L176.623 14.2139C176.136 14.0062 175.617 13.8307 175.065 13.6875C174.514 13.5443 173.952 13.4727 173.379 13.4727C172.555 13.4727 171.922 13.6087 171.478 13.8809C171.041 14.153 170.822 14.5254 170.822 14.998C170.822 15.3633 170.923 15.6641 171.123 15.9004C171.331 16.1367 171.66 16.3587 172.111 16.5664C172.562 16.7741 173.157 17.0176 173.895 17.2969C174.632 17.569 175.27 17.8519 175.807 18.1455C176.344 18.432 176.756 18.7829 177.042 19.1982C177.336 19.6064 177.482 20.1328 177.482 20.7773ZM187.967 20.7773C187.967 21.5293 187.777 22.1631 187.397 22.6787C187.025 23.1872 186.488 23.5703 185.786 23.8281C185.091 24.0859 184.261 24.2148 183.294 24.2148C182.47 24.2148 181.758 24.1504 181.156 24.0215C180.555 23.8926 180.028 23.71 179.577 23.4736V21.8301C180.057 22.0664 180.63 22.2812 181.296 22.4746C181.962 22.668 182.642 22.7646 183.337 22.7646C184.354 22.7646 185.091 22.5999 185.55 22.2705C186.008 21.9411 186.237 21.4935 186.237 20.9277C186.237 20.6055 186.144 20.3226 185.958 20.0791C185.779 19.8285 185.475 19.5885 185.045 19.3594C184.615 19.123 184.021 18.8652 183.262 18.5859C182.51 18.2995 181.858 18.0166 181.307 17.7373C180.762 17.4508 180.34 17.1035 180.039 16.6953C179.745 16.2871 179.599 15.7572 179.599 15.1055C179.599 14.11 180 13.3473 180.802 12.8174C181.611 12.2803 182.671 12.0117 183.981 12.0117C184.69 12.0117 185.353 12.0833 185.969 12.2266C186.592 12.3626 187.172 12.5488 187.709 12.7852L187.107 14.2139C186.62 14.0062 186.101 13.8307 185.55 13.6875C184.998 13.5443 184.436 13.4727 183.863 13.4727C183.04 13.4727 182.406 13.6087 181.962 13.8809C181.525 14.153 181.307 14.5254 181.307 14.998C181.307 15.3633 181.407 15.6641 181.607 15.9004C181.815 16.1367 182.145 16.3587 182.596 16.5664C183.047 16.7741 183.641 17.0176 184.379 17.2969C185.117 17.569 185.754 17.8519 186.291 18.1455C186.828 18.432 187.24 18.7829 187.526 19.1982C187.82 19.6064 187.967 20.1328 187.967 20.7773Z" fill="#000007"/>
<path d="M60.2368 38.1377H63.4805V42.6382C62.9938 42.8032 62.4924 42.9259 61.9761 43.0063C61.464 43.0868 60.8906 43.127 60.2559 43.127C59.291 43.127 58.4764 42.9344 57.812 42.5493C57.1519 42.1642 56.6504 41.6162 56.3076 40.9053C55.9648 40.1901 55.7935 39.3416 55.7935 38.3599C55.7935 37.3993 55.9818 36.5614 56.3584 35.8462C56.7393 35.131 57.2873 34.5767 58.0024 34.1831C58.7218 33.7853 59.5851 33.5864 60.5923 33.5864C61.1086 33.5864 61.5973 33.6351 62.0586 33.7324C62.5241 33.8255 62.9557 33.9588 63.3535 34.1323L62.9409 35.0718C62.5981 34.9237 62.2194 34.7967 61.8047 34.6909C61.3942 34.5851 60.9689 34.5322 60.5288 34.5322C59.7713 34.5322 59.1217 34.6888 58.5801 35.002C58.0426 35.3151 57.63 35.7573 57.3423 36.3286C57.0588 36.8999 56.917 37.577 56.917 38.3599C56.917 39.1343 57.0418 39.8092 57.2915 40.3848C57.5412 40.9561 57.9305 41.4004 58.4595 41.7178C58.9884 42.0352 59.6698 42.1938 60.5034 42.1938C60.9224 42.1938 61.2821 42.1706 61.5825 42.124C61.883 42.0732 62.1559 42.014 62.4014 41.9463V39.1025H60.2368V38.1377ZM71.3135 36.043V43H70.4502L70.2979 42.0225H70.2407C70.0968 42.2637 69.9106 42.4668 69.6821 42.6318C69.4536 42.7969 69.1955 42.9196 68.9077 43C68.6242 43.0846 68.3216 43.127 68 43.127C67.4499 43.127 66.9886 43.0381 66.6162 42.8604C66.2438 42.6826 65.9624 42.4076 65.772 42.0352C65.5858 41.6628 65.4927 41.1846 65.4927 40.6006V36.043H66.5591V40.5244C66.5591 41.1042 66.6903 41.5379 66.9526 41.8257C67.215 42.1092 67.6149 42.251 68.1523 42.251C68.6686 42.251 69.0791 42.1536 69.3838 41.959C69.6927 41.7643 69.9149 41.4787 70.0503 41.1021C70.1857 40.7212 70.2534 40.2557 70.2534 39.7056V36.043H71.3135ZM74.5952 36.043V43H73.5415V36.043H74.5952ZM74.0811 33.4404C74.2546 33.4404 74.4027 33.4976 74.5254 33.6118C74.6523 33.7218 74.7158 33.8953 74.7158 34.1323C74.7158 34.3651 74.6523 34.5386 74.5254 34.6528C74.4027 34.7671 74.2546 34.8242 74.0811 34.8242C73.8991 34.8242 73.7467 34.7671 73.624 34.6528C73.5055 34.5386 73.4463 34.3651 73.4463 34.1323C73.4463 33.8953 73.5055 33.7218 73.624 33.6118C73.7467 33.4976 73.8991 33.4404 74.0811 33.4404ZM79.3052 43.127C78.425 43.127 77.7267 42.8265 77.2104 42.2256C76.6984 41.6247 76.4424 40.7318 76.4424 39.5469C76.4424 38.3493 76.7048 37.4458 77.2295 36.8364C77.7542 36.2228 78.4525 35.916 79.3242 35.916C79.6924 35.916 80.014 35.9647 80.2891 36.062C80.5641 36.1593 80.8011 36.2905 81 36.4556C81.1989 36.6164 81.366 36.8005 81.5015 37.0078H81.5776C81.5607 36.8766 81.5438 36.6968 81.5269 36.4683C81.5099 36.2397 81.5015 36.0535 81.5015 35.9097V33.123H82.5552V43H81.7046L81.5459 42.0098H81.5015C81.3703 42.2171 81.2031 42.4054 81 42.5747C80.8011 42.744 80.562 42.8794 80.2827 42.981C80.0076 43.0783 79.6818 43.127 79.3052 43.127ZM79.4702 42.251C80.215 42.251 80.7419 42.0394 81.0508 41.6162C81.3597 41.193 81.5142 40.5646 81.5142 39.731V39.5405C81.5142 38.6561 81.366 37.9769 81.0698 37.5029C80.7778 37.029 80.2446 36.792 79.4702 36.792C78.8228 36.792 78.3382 37.0417 78.0166 37.541C77.695 38.0361 77.5342 38.7132 77.5342 39.5723C77.5342 40.4271 77.6929 41.0872 78.0103 41.5527C78.3319 42.0182 78.8185 42.251 79.4702 42.251ZM85.8433 36.043V43H84.7896V36.043H85.8433ZM85.3291 33.4404C85.5026 33.4404 85.6507 33.4976 85.7734 33.6118C85.9004 33.7218 85.9639 33.8953 85.9639 34.1323C85.9639 34.3651 85.9004 34.5386 85.7734 34.6528C85.6507 34.7671 85.5026 34.8242 85.3291 34.8242C85.1471 34.8242 84.9948 34.7671 84.8721 34.6528C84.7536 34.5386 84.6943 34.3651 84.6943 34.1323C84.6943 33.8953 84.7536 33.7218 84.8721 33.6118C84.9948 33.4976 85.1471 33.4404 85.3291 33.4404ZM91.3721 35.916C92.1973 35.916 92.8215 36.1191 93.2446 36.5254C93.6678 36.9274 93.8794 37.5749 93.8794 38.4678V43H92.8384V38.5376C92.8384 37.9578 92.7051 37.5241 92.4385 37.2363C92.1761 36.9486 91.772 36.8047 91.2261 36.8047C90.4559 36.8047 89.9142 37.0226 89.6011 37.4585C89.2879 37.8944 89.1313 38.527 89.1313 39.3564V43H88.0776V36.043H88.9282L89.0869 37.0459H89.144C89.2922 36.8005 89.4805 36.5952 89.709 36.4302C89.9375 36.2609 90.1935 36.134 90.4771 36.0493C90.7606 35.9604 91.0589 35.916 91.3721 35.916ZM97.9927 46.123C97.0786 46.123 96.374 45.9517 95.8789 45.6089C95.3838 45.2703 95.1362 44.7943 95.1362 44.1807C95.1362 43.7448 95.2738 43.3724 95.5488 43.0635C95.8281 42.7546 96.2132 42.5493 96.7041 42.4478C96.5221 42.3631 96.3656 42.2362 96.2344 42.0669C96.1074 41.8976 96.0439 41.703 96.0439 41.4829C96.0439 41.229 96.1138 41.0068 96.2534 40.8164C96.3973 40.6217 96.6152 40.4355 96.9072 40.2578C96.5433 40.1097 96.2471 39.86 96.0186 39.5088C95.7943 39.1533 95.6821 38.7407 95.6821 38.271C95.6821 37.7716 95.7858 37.3464 95.9932 36.9951C96.2005 36.6396 96.501 36.3688 96.8945 36.1826C97.2881 35.9964 97.7642 35.9033 98.3228 35.9033C98.4455 35.9033 98.5682 35.9097 98.6909 35.9224C98.8179 35.9308 98.9385 35.9456 99.0527 35.9668C99.167 35.9837 99.2664 36.0049 99.3511 36.0303H101.738V36.7095L100.456 36.8682C100.583 37.0332 100.688 37.2321 100.773 37.4648C100.858 37.6976 100.9 37.9557 100.9 38.2393C100.9 38.9333 100.665 39.4855 100.195 39.896C99.7256 40.3022 99.0802 40.5054 98.2593 40.5054C98.0646 40.5054 97.8657 40.4884 97.6626 40.4546C97.4552 40.5688 97.2965 40.6958 97.1865 40.8354C97.0807 40.9751 97.0278 41.1359 97.0278 41.3179C97.0278 41.4533 97.068 41.5612 97.1484 41.6416C97.2331 41.722 97.3537 41.7812 97.5103 41.8193C97.6668 41.8532 97.8551 41.8701 98.0752 41.8701H99.3003C100.058 41.8701 100.638 42.0288 101.04 42.3462C101.446 42.6636 101.649 43.127 101.649 43.7363C101.649 44.5065 101.336 45.0968 100.709 45.5073C100.083 45.9178 99.1776 46.123 97.9927 46.123ZM98.0244 45.2979C98.5999 45.2979 99.076 45.2386 99.4526 45.1201C99.8335 45.0059 100.117 44.8387 100.303 44.6187C100.494 44.4028 100.589 44.1447 100.589 43.8442C100.589 43.5649 100.525 43.3534 100.398 43.2095C100.271 43.0698 100.085 42.9767 99.8398 42.9302C99.5944 42.8794 99.2939 42.854 98.9385 42.854H97.7324C97.4193 42.854 97.1463 42.9027 96.9136 43C96.6808 43.0973 96.501 43.2412 96.374 43.4316C96.2513 43.6221 96.1899 43.859 96.1899 44.1426C96.1899 44.5192 96.3486 44.8049 96.666 44.9995C96.9834 45.1984 97.4362 45.2979 98.0244 45.2979ZM98.2974 39.7373C98.8009 39.7373 99.1797 39.6104 99.4336 39.3564C99.6875 39.1025 99.8145 38.7323 99.8145 38.2456C99.8145 37.7251 99.6854 37.3358 99.4272 37.0776C99.1691 36.8153 98.7882 36.6841 98.2847 36.6841C97.8022 36.6841 97.4299 36.8195 97.1675 37.0903C96.9093 37.3569 96.7803 37.7484 96.7803 38.2646C96.7803 38.7386 96.9115 39.1025 97.1738 39.3564C97.4362 39.6104 97.8107 39.7373 98.2974 39.7373ZM114.04 35.916C114.806 35.916 115.383 36.117 115.772 36.519C116.162 36.9168 116.356 37.5579 116.356 38.4424V43H115.315V38.4932C115.315 37.9303 115.193 37.5093 114.947 37.23C114.706 36.9465 114.346 36.8047 113.868 36.8047C113.195 36.8047 112.707 36.9993 112.402 37.3887C112.097 37.778 111.945 38.3514 111.945 39.1089V43H110.897V38.4932C110.897 38.1165 110.842 37.8034 110.732 37.5537C110.627 37.304 110.466 37.1178 110.25 36.9951C110.038 36.8682 109.77 36.8047 109.444 36.8047C108.983 36.8047 108.612 36.8999 108.333 37.0903C108.054 37.2808 107.851 37.5643 107.724 37.9409C107.601 38.3133 107.54 38.7725 107.54 39.3184V43H106.486V36.043H107.336L107.495 37.0269H107.552C107.692 36.7856 107.868 36.5825 108.079 36.4175C108.291 36.2524 108.528 36.1276 108.79 36.043C109.052 35.9583 109.332 35.916 109.628 35.916C110.157 35.916 110.599 36.0155 110.955 36.2144C111.314 36.409 111.575 36.7074 111.735 37.1094H111.792C112.021 36.7074 112.334 36.409 112.732 36.2144C113.13 36.0155 113.566 35.916 114.04 35.916ZM121.2 35.916C121.792 35.916 122.3 36.0472 122.723 36.3096C123.146 36.5719 123.47 36.9401 123.694 37.4141C123.919 37.8838 124.031 38.4339 124.031 39.0645V39.7183H119.226C119.238 40.535 119.441 41.1571 119.835 41.5845C120.229 42.0119 120.783 42.2256 121.498 42.2256C121.938 42.2256 122.327 42.1854 122.666 42.105C123.005 42.0246 123.356 41.9061 123.72 41.7495V42.6763C123.368 42.8328 123.019 42.9471 122.672 43.019C122.33 43.091 121.923 43.127 121.454 43.127C120.785 43.127 120.201 42.9915 119.702 42.7207C119.207 42.4456 118.821 42.0436 118.546 41.5146C118.271 40.9857 118.134 40.3382 118.134 39.5723C118.134 38.8232 118.259 38.1758 118.508 37.6299C118.762 37.0798 119.118 36.6566 119.575 36.3604C120.036 36.0641 120.578 35.916 121.2 35.916ZM121.187 36.7793C120.624 36.7793 120.176 36.9634 119.841 37.3315C119.507 37.6997 119.308 38.2139 119.245 38.874H122.926C122.922 38.4593 122.856 38.0954 122.729 37.7822C122.607 37.4648 122.418 37.2194 122.165 37.0459C121.911 36.8682 121.585 36.7793 121.187 36.7793ZM129.115 35.916C129.94 35.916 130.565 36.1191 130.988 36.5254C131.411 36.9274 131.623 37.5749 131.623 38.4678V43H130.582V38.5376C130.582 37.9578 130.448 37.5241 130.182 37.2363C129.919 36.9486 129.515 36.8047 128.969 36.8047C128.199 36.8047 127.657 37.0226 127.344 37.4585C127.031 37.8944 126.875 38.527 126.875 39.3564V43H125.821V36.043H126.671L126.83 37.0459H126.887C127.035 36.8005 127.224 36.5952 127.452 36.4302C127.681 36.2609 127.937 36.134 128.22 36.0493C128.504 35.9604 128.802 35.916 129.115 35.916ZM139.792 39.5088C139.792 40.0801 139.718 40.59 139.57 41.0386C139.422 41.4871 139.208 41.8659 138.929 42.1748C138.649 42.4837 138.311 42.7207 137.913 42.8857C137.52 43.0465 137.073 43.127 136.574 43.127C136.108 43.127 135.681 43.0465 135.292 42.8857C134.906 42.7207 134.572 42.4837 134.289 42.1748C134.009 41.8659 133.791 41.4871 133.635 41.0386C133.482 40.59 133.406 40.0801 133.406 39.5088C133.406 38.7471 133.535 38.0996 133.793 37.5664C134.052 37.029 134.42 36.6206 134.898 36.3413C135.38 36.0578 135.954 35.916 136.618 35.916C137.253 35.916 137.807 36.0578 138.281 36.3413C138.759 36.6248 139.13 37.0353 139.392 37.5728C139.659 38.106 139.792 38.7513 139.792 39.5088ZM134.498 39.5088C134.498 40.0674 134.572 40.5519 134.72 40.9624C134.868 41.3729 135.097 41.6903 135.406 41.9146C135.715 42.1388 136.112 42.251 136.599 42.251C137.082 42.251 137.477 42.1388 137.786 41.9146C138.099 41.6903 138.33 41.3729 138.478 40.9624C138.626 40.5519 138.7 40.0674 138.7 39.5088C138.7 38.9544 138.626 38.4762 138.478 38.0742C138.33 37.668 138.101 37.3548 137.792 37.1348C137.484 36.9147 137.084 36.8047 136.593 36.8047C135.869 36.8047 135.338 37.0438 135 37.522C134.665 38.0002 134.498 38.6624 134.498 39.5088ZM144.883 35.916C145.75 35.916 146.442 36.2144 146.958 36.811C147.475 37.4077 147.733 38.3049 147.733 39.5024C147.733 40.2938 147.614 40.9582 147.377 41.4956C147.14 42.033 146.806 42.4393 146.375 42.7144C145.947 42.9894 145.441 43.127 144.857 43.127C144.489 43.127 144.166 43.0783 143.886 42.981C143.607 42.8836 143.368 42.7524 143.169 42.5874C142.97 42.4224 142.805 42.2425 142.674 42.0479H142.598C142.61 42.2129 142.625 42.4118 142.642 42.6445C142.663 42.8773 142.674 43.0804 142.674 43.2539V46.1104H141.614V36.043H142.483L142.623 37.0713H142.674C142.809 36.8597 142.974 36.6672 143.169 36.4937C143.364 36.3159 143.601 36.1763 143.88 36.0747C144.163 35.9689 144.498 35.916 144.883 35.916ZM144.699 36.8047C144.216 36.8047 143.827 36.8978 143.531 37.084C143.239 37.2702 143.025 37.5495 142.89 37.9219C142.754 38.29 142.682 38.7534 142.674 39.312V39.5151C142.674 40.1034 142.737 40.6006 142.864 41.0068C142.995 41.4131 143.209 41.722 143.505 41.9336C143.806 42.1452 144.208 42.251 144.711 42.251C145.143 42.251 145.503 42.1346 145.791 41.9019C146.078 41.6691 146.292 41.3454 146.432 40.9307C146.576 40.5117 146.647 40.0314 146.647 39.4897C146.647 38.6688 146.487 38.0171 146.165 37.5347C145.848 37.048 145.359 36.8047 144.699 36.8047ZM152.176 35.9287C153.006 35.9287 153.621 36.1149 154.023 36.4873C154.425 36.8597 154.626 37.4543 154.626 38.271V43H153.858L153.655 41.9717H153.604C153.41 42.2256 153.207 42.4393 152.995 42.6128C152.784 42.7821 152.538 42.9111 152.259 43C151.984 43.0846 151.645 43.127 151.243 43.127C150.82 43.127 150.443 43.0529 150.113 42.9048C149.787 42.7567 149.529 42.5324 149.339 42.2319C149.153 41.9315 149.06 41.5506 149.06 41.0894C149.06 40.3953 149.335 39.8621 149.885 39.4897C150.435 39.1174 151.273 38.9142 152.398 38.8804L153.598 38.8296V38.4043C153.598 37.8034 153.469 37.3823 153.211 37.1411C152.953 36.8999 152.589 36.7793 152.119 36.7793C151.755 36.7793 151.408 36.8322 151.078 36.938C150.748 37.0438 150.435 37.1686 150.139 37.3125L149.815 36.5127C150.128 36.3519 150.488 36.2144 150.894 36.1001C151.3 35.9858 151.728 35.9287 152.176 35.9287ZM153.585 39.5723L152.525 39.6167C151.658 39.6506 151.046 39.7923 150.691 40.042C150.335 40.2917 150.158 40.645 150.158 41.1021C150.158 41.4998 150.278 41.7939 150.52 41.9844C150.761 42.1748 151.08 42.27 151.478 42.27C152.096 42.27 152.602 42.0986 152.995 41.7559C153.389 41.4131 153.585 40.8989 153.585 40.2134V39.5723ZM162.542 36.043V43H161.679L161.526 42.0225H161.469C161.325 42.2637 161.139 42.4668 160.911 42.6318C160.682 42.7969 160.424 42.9196 160.136 43C159.853 43.0846 159.55 43.127 159.229 43.127C158.678 43.127 158.217 43.0381 157.845 42.8604C157.472 42.6826 157.191 42.4076 157 42.0352C156.814 41.6628 156.721 41.1846 156.721 40.6006V36.043H157.788V40.5244C157.788 41.1042 157.919 41.5379 158.181 41.8257C158.444 42.1092 158.843 42.251 159.381 42.251C159.897 42.251 160.308 42.1536 160.612 41.959C160.921 41.7643 161.143 41.4787 161.279 41.1021C161.414 40.7212 161.482 40.2557 161.482 39.7056V36.043H162.542ZM169.271 41.0957C169.271 41.54 169.158 41.9146 168.934 42.2192C168.714 42.5197 168.397 42.7461 167.982 42.8984C167.571 43.0508 167.081 43.127 166.509 43.127C166.023 43.127 165.602 43.0889 165.246 43.0127C164.891 42.9365 164.58 42.8286 164.313 42.689V41.7178C164.597 41.8574 164.935 41.9844 165.329 42.0986C165.722 42.2129 166.124 42.27 166.535 42.27C167.136 42.27 167.571 42.1727 167.842 41.978C168.113 41.7834 168.249 41.5189 168.249 41.1846C168.249 40.9941 168.194 40.827 168.083 40.6831C167.978 40.535 167.798 40.3932 167.544 40.2578C167.29 40.1182 166.939 39.9658 166.49 39.8008C166.046 39.6315 165.661 39.4644 165.335 39.2993C165.013 39.13 164.764 38.9248 164.586 38.6836C164.412 38.4424 164.326 38.1292 164.326 37.7441C164.326 37.1559 164.563 36.7052 165.037 36.3921C165.515 36.0747 166.141 35.916 166.916 35.916C167.334 35.916 167.726 35.9583 168.09 36.043C168.458 36.1234 168.801 36.2334 169.118 36.373L168.763 37.2173C168.475 37.0946 168.168 36.9909 167.842 36.9062C167.516 36.8216 167.184 36.7793 166.846 36.7793C166.359 36.7793 165.985 36.8597 165.722 37.0205C165.464 37.1813 165.335 37.4014 165.335 37.6807C165.335 37.8965 165.394 38.0742 165.513 38.2139C165.635 38.3535 165.83 38.4847 166.097 38.6074C166.363 38.7301 166.715 38.874 167.15 39.0391C167.586 39.1999 167.963 39.367 168.28 39.5405C168.598 39.7098 168.841 39.9172 169.01 40.1626C169.184 40.4038 169.271 40.7148 169.271 41.0957ZM173.644 35.916C174.236 35.916 174.744 36.0472 175.167 36.3096C175.591 36.5719 175.914 36.9401 176.139 37.4141C176.363 37.8838 176.475 38.4339 176.475 39.0645V39.7183H171.67C171.683 40.535 171.886 41.1571 172.279 41.5845C172.673 42.0119 173.227 42.2256 173.942 42.2256C174.382 42.2256 174.772 42.1854 175.11 42.105C175.449 42.0246 175.8 41.9061 176.164 41.7495V42.6763C175.813 42.8328 175.464 42.9471 175.117 43.019C174.774 43.091 174.368 43.127 173.898 43.127C173.229 43.127 172.645 42.9915 172.146 42.7207C171.651 42.4456 171.266 42.0436 170.991 41.5146C170.716 40.9857 170.578 40.3382 170.578 39.5723C170.578 38.8232 170.703 38.1758 170.953 37.6299C171.207 37.0798 171.562 36.6566 172.019 36.3604C172.48 36.0641 173.022 35.916 173.644 35.916ZM173.631 36.7793C173.069 36.7793 172.62 36.9634 172.286 37.3315C171.951 37.6997 171.752 38.2139 171.689 38.874H175.371C175.366 38.4593 175.301 38.0954 175.174 37.7822C175.051 37.4648 174.863 37.2194 174.609 37.0459C174.355 36.8682 174.029 36.7793 173.631 36.7793ZM181.052 39.9785V39.0391H184.2V39.9785H181.052ZM191.456 42.2637C191.629 42.2637 191.807 42.2489 191.989 42.2192C192.171 42.1896 192.319 42.1536 192.433 42.1113V42.9302C192.31 42.9852 192.139 43.0317 191.919 43.0698C191.703 43.1079 191.492 43.127 191.284 43.127C190.916 43.127 190.582 43.0635 190.281 42.9365C189.981 42.8053 189.74 42.5853 189.558 42.2764C189.38 41.9674 189.291 41.54 189.291 40.9941V36.8682H188.301V36.354L189.297 35.9414L189.716 34.4307H190.351V36.043H192.389V36.8682H190.351V40.9624C190.351 41.3983 190.451 41.7241 190.649 41.9399C190.853 42.1558 191.121 42.2637 191.456 42.2637ZM199.841 39.5088C199.841 40.0801 199.767 40.59 199.619 41.0386C199.471 41.4871 199.257 41.8659 198.978 42.1748C198.698 42.4837 198.36 42.7207 197.962 42.8857C197.568 43.0465 197.122 43.127 196.623 43.127C196.157 43.127 195.73 43.0465 195.34 42.8857C194.955 42.7207 194.621 42.4837 194.337 42.1748C194.058 41.8659 193.84 41.4871 193.684 41.0386C193.531 40.59 193.455 40.0801 193.455 39.5088C193.455 38.7471 193.584 38.0996 193.842 37.5664C194.1 37.029 194.469 36.6206 194.947 36.3413C195.429 36.0578 196.003 35.916 196.667 35.916C197.302 35.916 197.856 36.0578 198.33 36.3413C198.808 36.6248 199.179 37.0353 199.441 37.5728C199.708 38.106 199.841 38.7513 199.841 39.5088ZM194.547 39.5088C194.547 40.0674 194.621 40.5519 194.769 40.9624C194.917 41.3729 195.146 41.6903 195.455 41.9146C195.764 42.1388 196.161 42.251 196.648 42.251C197.13 42.251 197.526 42.1388 197.835 41.9146C198.148 41.6903 198.379 41.3729 198.527 40.9624C198.675 40.5519 198.749 40.0674 198.749 39.5088C198.749 38.9544 198.675 38.4762 198.527 38.0742C198.379 37.668 198.15 37.3548 197.841 37.1348C197.532 36.9147 197.132 36.8047 196.642 36.8047C195.918 36.8047 195.387 37.0438 195.048 37.522C194.714 38.0002 194.547 38.6624 194.547 39.5088ZM203.605 46.123C202.691 46.123 201.986 45.9517 201.491 45.6089C200.996 45.2703 200.749 44.7943 200.749 44.1807C200.749 43.7448 200.886 43.3724 201.161 43.0635C201.44 42.7546 201.826 42.5493 202.316 42.4478C202.134 42.3631 201.978 42.2362 201.847 42.0669C201.72 41.8976 201.656 41.703 201.656 41.4829C201.656 41.229 201.726 41.0068 201.866 40.8164C202.01 40.6217 202.228 40.4355 202.52 40.2578C202.156 40.1097 201.859 39.86 201.631 39.5088C201.407 39.1533 201.294 38.7407 201.294 38.271C201.294 37.7716 201.398 37.3464 201.605 36.9951C201.813 36.6396 202.113 36.3688 202.507 36.1826C202.9 35.9964 203.376 35.9033 203.935 35.9033C204.058 35.9033 204.181 35.9097 204.303 35.9224C204.43 35.9308 204.551 35.9456 204.665 35.9668C204.779 35.9837 204.879 36.0049 204.963 36.0303H207.35V36.7095L206.068 36.8682C206.195 37.0332 206.301 37.2321 206.385 37.4648C206.47 37.6976 206.512 37.9557 206.512 38.2393C206.512 38.9333 206.277 39.4855 205.808 39.896C205.338 40.3022 204.693 40.5054 203.872 40.5054C203.677 40.5054 203.478 40.4884 203.275 40.4546C203.068 40.5688 202.909 40.6958 202.799 40.8354C202.693 40.9751 202.64 41.1359 202.64 41.3179C202.64 41.4533 202.68 41.5612 202.761 41.6416C202.845 41.722 202.966 41.7812 203.123 41.8193C203.279 41.8532 203.467 41.8701 203.688 41.8701H204.913C205.67 41.8701 206.25 42.0288 206.652 42.3462C207.058 42.6636 207.261 43.127 207.261 43.7363C207.261 44.5065 206.948 45.0968 206.322 45.5073C205.695 45.9178 204.79 46.123 203.605 46.123ZM203.637 45.2979C204.212 45.2979 204.688 45.2386 205.065 45.1201C205.446 45.0059 205.729 44.8387 205.916 44.6187C206.106 44.4028 206.201 44.1447 206.201 43.8442C206.201 43.5649 206.138 43.3534 206.011 43.2095C205.884 43.0698 205.698 42.9767 205.452 42.9302C205.207 42.8794 204.906 42.854 204.551 42.854H203.345C203.032 42.854 202.759 42.9027 202.526 43C202.293 43.0973 202.113 43.2412 201.986 43.4316C201.864 43.6221 201.802 43.859 201.802 44.1426C201.802 44.5192 201.961 44.8049 202.278 44.9995C202.596 45.1984 203.049 45.2979 203.637 45.2979ZM203.91 39.7373C204.413 39.7373 204.792 39.6104 205.046 39.3564C205.3 39.1025 205.427 38.7323 205.427 38.2456C205.427 37.7251 205.298 37.3358 205.04 37.0776C204.781 36.8153 204.401 36.6841 203.897 36.6841C203.415 36.6841 203.042 36.8195 202.78 37.0903C202.522 37.3569 202.393 37.7484 202.393 38.2646C202.393 38.7386 202.524 39.1025 202.786 39.3564C203.049 39.6104 203.423 39.7373 203.91 39.7373ZM211.4 35.916C211.992 35.916 212.5 36.0472 212.923 36.3096C213.347 36.5719 213.67 36.9401 213.895 37.4141C214.119 37.8838 214.231 38.4339 214.231 39.0645V39.7183H209.426C209.438 40.535 209.642 41.1571 210.035 41.5845C210.429 42.0119 210.983 42.2256 211.698 42.2256C212.138 42.2256 212.528 42.1854 212.866 42.105C213.205 42.0246 213.556 41.9061 213.92 41.7495V42.6763C213.569 42.8328 213.22 42.9471 212.873 43.019C212.53 43.091 212.124 43.127 211.654 43.127C210.985 43.127 210.401 42.9915 209.902 42.7207C209.407 42.4456 209.022 42.0436 208.747 41.5146C208.472 40.9857 208.334 40.3382 208.334 39.5723C208.334 38.8232 208.459 38.1758 208.708 37.6299C208.962 37.0798 209.318 36.6566 209.775 36.3604C210.236 36.0641 210.778 35.916 211.4 35.916ZM211.387 36.7793C210.824 36.7793 210.376 36.9634 210.042 37.3315C209.707 37.6997 209.508 38.2139 209.445 38.874H213.126C213.122 38.4593 213.057 38.0954 212.93 37.7822C212.807 37.4648 212.619 37.2194 212.365 37.0459C212.111 36.8682 211.785 36.7793 211.387 36.7793ZM218.268 42.2637C218.442 42.2637 218.619 42.2489 218.801 42.2192C218.983 42.1896 219.131 42.1536 219.246 42.1113V42.9302C219.123 42.9852 218.951 43.0317 218.731 43.0698C218.516 43.1079 218.304 43.127 218.097 43.127C217.729 43.127 217.394 43.0635 217.094 42.9365C216.793 42.8053 216.552 42.5853 216.37 42.2764C216.192 41.9674 216.104 41.54 216.104 40.9941V36.8682H215.113V36.354L216.11 35.9414L216.529 34.4307H217.164V36.043H219.201V36.8682H217.164V40.9624C217.164 41.3983 217.263 41.7241 217.462 41.9399C217.665 42.1558 217.934 42.2637 218.268 42.2637ZM221.708 33.123V36.0747C221.708 36.244 221.704 36.4154 221.696 36.5889C221.687 36.7581 221.673 36.9147 221.651 37.0586H221.721C221.865 36.8132 222.047 36.6079 222.267 36.4429C222.491 36.2736 222.745 36.1466 223.029 36.062C223.312 35.9731 223.613 35.9287 223.93 35.9287C224.489 35.9287 224.954 36.0176 225.327 36.1953C225.703 36.373 225.985 36.6481 226.171 37.0205C226.361 37.3929 226.457 37.8753 226.457 38.4678V43H225.416V38.5376C225.416 37.9578 225.282 37.5241 225.016 37.2363C224.753 36.9486 224.349 36.8047 223.803 36.8047C223.287 36.8047 222.874 36.9041 222.565 37.103C222.261 37.2977 222.041 37.5854 221.905 37.9663C221.774 38.3472 221.708 38.8127 221.708 39.3628V43H220.655V33.123H221.708ZM231.306 35.916C231.899 35.916 232.406 36.0472 232.83 36.3096C233.253 36.5719 233.576 36.9401 233.801 37.4141C234.025 37.8838 234.137 38.4339 234.137 39.0645V39.7183H229.332C229.345 40.535 229.548 41.1571 229.941 41.5845C230.335 42.0119 230.889 42.2256 231.604 42.2256C232.045 42.2256 232.434 42.1854 232.772 42.105C233.111 42.0246 233.462 41.9061 233.826 41.7495V42.6763C233.475 42.8328 233.126 42.9471 232.779 43.019C232.436 43.091 232.03 43.127 231.56 43.127C230.891 43.127 230.307 42.9915 229.808 42.7207C229.313 42.4456 228.928 42.0436 228.653 41.5146C228.378 40.9857 228.24 40.3382 228.24 39.5723C228.24 38.8232 228.365 38.1758 228.615 37.6299C228.869 37.0798 229.224 36.6566 229.681 36.3604C230.142 36.0641 230.684 35.916 231.306 35.916ZM231.293 36.7793C230.731 36.7793 230.282 36.9634 229.948 37.3315C229.613 37.6997 229.415 38.2139 229.351 38.874H233.033C233.028 38.4593 232.963 38.0954 232.836 37.7822C232.713 37.4648 232.525 37.2194 232.271 37.0459C232.017 36.8682 231.691 36.7793 231.293 36.7793ZM239.088 35.916C239.228 35.916 239.374 35.9245 239.526 35.9414C239.679 35.9541 239.814 35.9731 239.933 35.9985L239.799 36.9761C239.685 36.9465 239.558 36.9232 239.418 36.9062C239.279 36.8893 239.148 36.8809 239.025 36.8809C238.746 36.8809 238.481 36.938 238.231 37.0522C237.986 37.1623 237.77 37.3231 237.584 37.5347C237.398 37.742 237.252 37.9938 237.146 38.29C237.04 38.582 236.987 38.9079 236.987 39.2676V43H235.927V36.043H236.803L236.917 37.3252H236.962C237.106 37.0671 237.279 36.8322 237.482 36.6206C237.686 36.4048 237.92 36.2334 238.187 36.1064C238.458 35.9795 238.758 35.916 239.088 35.916Z" fill="#9A9A9A"/>
<circle cx="23.5" cy="24.5" r="23.5" fill="url(#paint0_linear_142_6)"/>
<path d="M24.0166 31H21.3008V25.4541H16.2119V31H13.4873V18.1504H16.2119V23.1865H21.3008V18.1504H24.0166V31ZM32.7266 20.2334C32.2051 20.2334 31.7422 20.3359 31.3379 20.541C30.9395 20.7402 30.6025 21.0303 30.3271 21.4111C30.0576 21.792 29.8525 22.252 29.7119 22.791C29.5713 23.3301 29.501 23.9365 29.501 24.6104C29.501 25.5186 29.6123 26.2949 29.835 26.9395C30.0635 27.5781 30.415 28.0674 30.8896 28.4072C31.3643 28.7412 31.9766 28.9082 32.7266 28.9082C33.248 28.9082 33.7695 28.8496 34.291 28.7324C34.8184 28.6152 35.3896 28.4482 36.0049 28.2314V30.5166C35.4365 30.751 34.877 30.918 34.3262 31.0176C33.7754 31.123 33.1572 31.1758 32.4717 31.1758C31.1475 31.1758 30.0576 30.9033 29.2021 30.3584C28.3525 29.8076 27.7227 29.04 27.3125 28.0557C26.9023 27.0654 26.6973 25.9111 26.6973 24.5928C26.6973 23.6201 26.8291 22.7295 27.0928 21.9209C27.3564 21.1123 27.7432 20.4121 28.2529 19.8203C28.7627 19.2285 29.3926 18.7715 30.1426 18.4492C30.8926 18.127 31.7539 17.9658 32.7266 17.9658C33.3652 17.9658 34.0039 18.0479 34.6426 18.2119C35.2871 18.3701 35.9023 18.5898 36.4883 18.8711L35.6094 21.0859C35.1289 20.8574 34.6455 20.6582 34.1592 20.4883C33.6729 20.3184 33.1953 20.2334 32.7266 20.2334Z" fill="white"/>
<defs>
<linearGradient id="paint0_linear_142_6" x1="15.8625" y1="6.875" x2="29.9625" y2="38.6" gradientUnits="userSpaceOnUse">
<stop stop-color="#9B8BF0"/>
<stop offset="1" stop-color="#8DA695"/>
</linearGradient>
</defs>
</svg>
